HIERARCHY
ROOT joint_Root
{
	OFFSET 0.0 0.0 0.0
	CHANNELS 6 Xposition Yposition Zposition Zrotation Xrotation Yrotation 
	JOINT Hips
	{
		OFFSET -0.726466 93.3139 -2.00062
		CHANNELS 6 Xposition Yposition Zposition Zrotation Xrotation Yrotation 
		JOINT Spine
		{
			OFFSET 15.7357 0.0 0.0
			CHANNELS 6 Xposition Yposition Zposition Zrotation Xrotation Yrotation 
			JOINT Chest
			{
				OFFSET 8.98455 -0.406207 0.0
				CHANNELS 6 Xposition Yposition Zposition Zrotation Xrotation Yrotation 
				JOINT Neck
				{
					OFFSET 16.3773 0.0 0.0
					CHANNELS 6 Xposition Yposition Zposition Zrotation Xrotation Yrotation 
					JOINT Head
					{
						OFFSET 6.45672 0.0 0.0
						CHANNELS 6 Xposition Yposition Zposition Zrotation Xrotation Yrotation 
						End Site
						{
							OFFSET 0.0 0.0 0.0
						}
					}
				}
				JOINT Shoulder_L
				{
					OFFSET 12.9942 -0.242716 4.98039
					CHANNELS 6 Xposition Yposition Zposition Zrotation Xrotation Yrotation 
					JOINT UpperArm_L
					{
						OFFSET 5.34809 0.0 0.0
						CHANNELS 6 Xposition Yposition Zposition Zrotation Xrotation Yrotation 
						JOINT LowerArm_L
						{
							OFFSET 24.3286 1.87007e-05 0.0
							CHANNELS 6 Xposition Yposition Zposition Zrotation Xrotation Yrotation 
							JOINT Hand_L
							{
								OFFSET 22.2916 0.0 0.0
								CHANNELS 6 Xposition Yposition Zposition Zrotation Xrotation Yrotation 
								End Site
								{
									OFFSET 0.0 0.0 0.0
								}
							}
						}
					}
				}
				JOINT Shoulder_R
				{
					OFFSET 12.9945 -0.242716 -4.98039
					CHANNELS 6 Xposition Yposition Zposition Zrotation Xrotation Yrotation 
					JOINT UpperArm_R
					{
						OFFSET -5.34813 0.0 0.0
						CHANNELS 6 Xposition Yposition Zposition Zrotation Xrotation Yrotation 
						JOINT LowerArm_R
						{
							OFFSET -24.3289 0.000322201 0.0
							CHANNELS 6 Xposition Yposition Zposition Zrotation Xrotation Yrotation 
							JOINT Hand_R
							{
								OFFSET -22.2915 -0.000108084 0.0
								CHANNELS 6 Xposition Yposition Zposition Zrotation Xrotation Yrotation 
								End Site
								{
									OFFSET 0.0 0.0 0.0
								}
							}
						}
					}
				}
			}
		}
		JOINT UpperLeg_L
		{
			OFFSET -2.19248 -6.46944 0.0
			CHANNELS 6 Xposition Yposition Zposition Zrotation Xrotation Yrotation 
			JOINT LowerLeg_L
			{
				OFFSET 39.0811 0.0 -1.23785e-05
				CHANNELS 6 Xposition Yposition Zposition Zrotation Xrotation Yrotation 
				JOINT Foot_L
				{
					OFFSET 40.9854 0.0 -1.26872e-05
					CHANNELS 6 Xposition Yposition Zposition Zrotation Xrotation Yrotation 
					JOINT Toes_L
					{
						OFFSET 11.7543 0.0 0.0
						CHANNELS 6 Xposition Yposition Zposition Zrotation Xrotation Yrotation 
						End Site
						{
							OFFSET 0.0 0.0 0.0
						}
					}
				}
			}
		}
		JOINT UpperLeg_R
		{
			OFFSET -2.19251 6.46944 0.0
			CHANNELS 6 Xposition Yposition Zposition Zrotation Xrotation Yrotation 
			JOINT LowerLeg_R
			{
				OFFSET -39.0811 -0.00228153 -0.0401928
				CHANNELS 6 Xposition Yposition Zposition Zrotation Xrotation Yrotation 
				JOINT Foot_R
				{
					OFFSET -40.9854 0.0 0.0
					CHANNELS 6 Xposition Yposition Zposition Zrotation Xrotation Yrotation 
					JOINT Toes_R
					{
						OFFSET -11.7543 0.0 0.0
						CHANNELS 6 Xposition Yposition Zposition Zrotation Xrotation Yrotation 
						End Site
						{
							OFFSET 0.0 0.0 0.0
						}
					}
				}
			}
		}
	}
}
MOTION
Frames:	4
Frame Time:	0.0333333
0.000000 0.000000 0.000000 0.000000 0.000000 -0.000000 -0.646451 90.478900 -433.144000 87.759200 -5.364940 -11.187100 15.735700 0.000005 -0.000001 102.822000 82.082800 -103.637000 8.984550 -0.406207 -0.000000 7.709870 3.500220 -1.865180 16.377300 -0.000001 -0.000001 -4.072640 -1.894820 0.503401 6.456720 -0.000001 -0.000000 -7.448110 -6.294650 2.790140 12.994200 -0.242716 4.980390 -86.839900 -8.640780 -69.822600 5.348090 -0.000007 -0.000001 -77.713100 26.843300 18.538600 24.328600 0.000019 0.000005 3.643760 0.212007 -86.672600 22.291600 -0.000001 0.000005 4.219960 5.650520 -15.067600 12.994500 -0.242716 -4.980390 90.053500 -0.183539 -73.662400 -5.348130 -0.000001 -0.000004 -61.922200 40.513300 -24.671000 -24.328900 0.000322 -0.000009 7.506210 -0.288507 -92.200400 -22.291500 -0.000108 -0.000004 17.707200 5.561760 -9.269120 -2.192480 -6.469440 -0.000000 175.448000 -11.069200 -32.524000 39.081100 -0.000007 -0.000012 0.031374 -0.047385 33.508000 40.985400 -0.000006 -0.000013 3.950930 -6.355400 -63.838200 11.754300 -0.000000 0.000003 -0.005687 -0.067979 -19.343200 -2.192510 6.469440 -0.000001 177.621000 2.589070 179.319000 -39.081100 -0.002282 -0.040193 0.030828 -0.022219 51.149200 -40.985400 0.000008 0.000006 3.523300 -0.686530 -39.164800 -11.754300 -0.000006 -0.000006 -0.025910 -0.198069 -24.678500
0.000000 0.000000 0.000000 0.000000 0.000000 -0.000000 -0.046760 87.385400 -426.288000 89.708600 -4.022090 -10.357400 15.735700 0.000005 -0.000001 93.822700 82.167700 -95.346800 8.984550 -0.406207 -0.000000 7.880310 1.038450 -3.116560 16.377300 -0.000001 -0.000001 -4.090290 -2.299240 0.723986 6.456720 -0.000001 -0.000000 -6.502590 -4.917600 3.070720 12.994200 -0.242716 4.980390 -88.069900 -5.451680 -70.471500 5.348090 -0.000007 -0.000001 -73.897200 23.726200 11.382200 24.328600 0.000019 0.000005 5.739820 0.173416 -88.274900 22.291600 -0.000001 0.000005 4.065660 5.661260 -16.206200 12.994500 -0.242716 -4.980390 89.083100 2.910500 -72.506800 -5.348130 -0.000001 -0.000004 -61.207100 41.824100 -17.368600 -24.328900 0.000322 -0.000009 12.324400 1.029210 -85.313100 -22.291500 -0.000108 -0.000004 14.423700 5.557200 -9.066200 -2.192480 -6.469440 -0.000000 173.980000 -8.795440 -33.058100 39.081100 -0.000007 -0.000012 -0.394699 0.381977 45.939300 40.985400 -0.000006 -0.000013 2.965210 -7.142050 -74.457200 11.754300 -0.000000 0.000003 -0.000482 -0.007747 -16.892100 -2.192510 6.469440 -0.000001 176.449000 1.797060 172.211000 -39.081100 -0.002282 -0.040193 -0.034758 0.013945 69.786500 -40.985400 0.000008 0.000006 3.181840 -0.764903 -40.290500 -11.754300 -0.000006 -0.000006 -0.028710 -0.211487 -25.234200
0.000000 0.000000 0.000000 0.000000 0.000000 -0.000000 0.480010 84.503900 -419.718000 91.586900 -2.047720 -7.987090 15.735700 0.000005 -0.000001 85.436300 81.233500 -87.480500 8.984550 -0.406207 -0.000000 9.691280 -1.421050 -3.964950 16.377300 -0.000001 -0.000001 -4.704380 -3.123060 0.785235 6.456720 -0.000001 -0.000000 -5.941640 -3.796750 2.877750 12.994200 -0.242716 4.980390 -89.386600 -1.816100 -71.337500 5.348090 -0.000007 -0.000001 -68.937000 21.568800 0.167601 24.328600 0.000019 0.000005 5.129780 0.106765 -88.811100 22.291600 -0.000001 0.000005 4.139020 5.667480 -17.007700 12.994500 -0.242716 -4.980390 88.575100 4.315190 -71.706800 -5.348130 -0.000001 -0.000004 -63.644700 40.106300 -7.809520 -24.328900 0.000322 -0.000009 17.778600 4.416550 -76.506300 -22.291500 -0.000108 -0.000004 14.090800 5.602190 -11.447200 -2.192480 -6.469440 -0.000000 172.737000 -5.869660 -29.149600 39.081100 -0.000007 -0.000012 -0.673616 0.499922 53.421000 40.985400 -0.000006 -0.000013 1.705510 -8.488790 -83.329500 11.754300 -0.000000 0.000003 -0.000009 -0.000119 -16.582200 -2.192510 6.469440 -0.000001 175.735000 1.550740 165.122000 -39.081100 -0.002282 -0.040193 -0.162332 0.007801 87.275000 -40.985400 0.000008 0.000006 4.403020 -1.536260 -43.102200 -11.754300 -0.000006 -0.000006 -0.029209 -0.213817 -25.330800
0.000000 0.000000 0.000000 0.000000 0.000000 -0.000000 0.915186 82.844000 -413.480000 91.946700 -0.388094 -7.129750 15.735700 0.000005 -0.000001 81.539500 80.664800 -83.521400 8.984550 -0.406207 -0.000000 10.664900 -2.777540 -3.702860 16.377300 -0.000001 -0.000001 -4.453460 -3.577710 0.908301 6.456720 -0.000001 -0.000000 -6.246690 -3.552230 2.530210 12.994200 -0.242716 4.980390 -90.140800 0.440100 -72.264500 5.348090 -0.000007 -0.000001 -65.353100 20.601400 -13.496600 24.328600 0.000019 0.000005 5.305460 0.025929 -89.714300 22.291600 -0.000001 0.000005 4.459880 5.672390 -17.774300 12.994500 -0.242716 -4.980390 88.630500 3.941500 -70.821600 -5.348130 -0.000001 -0.000004 -66.448400 36.889200 2.041120 -24.328900 0.000322 -0.000009 20.857000 7.837840 -70.308100 -22.291500 -0.000108 -0.000004 13.622100 5.621030 -12.737700 -2.192480 -6.469440 -0.000000 172.903000 -7.813780 -23.973300 39.081100 -0.000007 -0.000012 -0.778342 0.538658 55.316700 40.985400 -0.000006 -0.000013 2.391590 -5.795870 -89.457800 11.754300 -0.000000 0.000003 -0.000011 -0.000149 -16.583400 -2.192510 6.469440 -0.000001 176.579000 1.520890 155.459000 -39.081100 -0.002282 -0.040193 -0.303233 -0.053869 99.950200 -40.985400 0.000008 0.000006 6.363010 -3.186880 -45.511700 -11.754300 -0.000006 -0.000006 -0.030587 -0.220142 -25.593200
